<svg xmlns="http://www.w3.org/2000/svg" viewBox="0 0 64 64" role="img" aria-label="Yunxi Tiku">
  <defs>
    <linearGradient id="bg" x1="10" y1="8" x2="54" y2="58" gradientUnits="userSpaceOnUse">
      <stop offset="0" stop-color="#818cf8"/>
      <stop offset="0.56" stop-color="#6366f1"/>
      <stop offset="1" stop-color="#4f46e5"/>
    </linearGradient>
    <filter id="shadow" x="-20%" y="-20%" width="140%" height="140%">
      <feDropShadow dx="0" dy="5" stdDeviation="5" flood-color="#312e81" flood-opacity="0.28"/>
    </filter>
  </defs>
  <rect width="64" height="64" rx="16" fill="#f8fafc"/>
  <rect x="6" y="6" width="52" height="52" rx="14" fill="url(#bg)" filter="url(#shadow)"/>
  <path d="M21.8 31.2c.8-5.9 5.8-10.4 11.9-10.4 5.2 0 9.6 3.3 11.3 7.9 4.4.4 7.8 4 7.8 8.5 0 4.8-3.9 8.6-8.7 8.6H21.5c-5.5 0-10-4.4-10-9.9 0-5.2 4-9.5 9.2-9.9.3 1.7.7 3.4 1.1 5.2Z" fill="#ffffff" opacity="0.95"/>
  <path d="M22 31.6c1.2-5 5.7-8.7 11.1-8.7 3.8 0 7.1 1.8 9.2 4.6" fill="none" stroke="#c7d2fe" stroke-width="3.2" stroke-linecap="round"/>
  <path d="M21 34.5h11.2c2.9 0 5.2 2.3 5.2 5.2v11.1H26.1c-2.8 0-5.1-2.3-5.1-5.1V34.5Z" fill="#eef2ff"/>
  <path d="M37.4 34.5h5.1c2.8 0 5.1 2.3 5.1 5.1v11.2h-5c-2.9 0-5.2-2.3-5.2-5.2V34.5Z" fill="#ffffff"/>
  <path d="M37.4 34.8v16" stroke="#6366f1" stroke-width="2.4" stroke-linecap="round"/>
  <path d="M25.5 39.7h7.2M25.5 44.2h6" stroke="#6366f1" stroke-width="2.4" stroke-linecap="round"/>
  <path d="m41.1 43.4 2.1 2.1 4.7-5" fill="none" stroke="#22c55e" stroke-width="2.8" stroke-linecap="round" stroke-linejoin="round"/>
</svg>
